<?xml version="1.0" standalone="no"?>
<!DOCTYPE svg PUBLIC "-//W3C//DTD SVG 20010904//EN"
 "http://www.w3.org/TR/2001/REC-SVG-20010904/DTD/svg10.dtd">
<svg version="1.0" xmlns="http://www.w3.org/2000/svg"
 width="461.000000pt" height="363.000000pt" viewBox="0 0 461.000000 363.000000"
 preserveAspectRatio="xMidYMid meet">

<g transform="translate(0.000000,363.000000) scale(0.100000,-0.100000)"
fill="#000000" stroke="none">
<path d="M2274 3293 c-115 -177 -116 -178 -54 -113 67 71 54 51 -53 -82 -48
-60 -87 -112 -87 -118 0 -5 -11 -17 -25 -26 -13 -9 -50 -51 -81 -95 -32 -43
-60 -79 -64 -79 -3 0 -15 -7 -26 -16 -10 -8 -13 -13 -6 -9 17 9 15 -5 -5 -27
-15 -17 -15 -19 3 -39 12 -14 15 -23 8 -26 -6 -2 -20 -11 -30 -19 -18 -15 -18
-15 1 -6 158 74 223 102 299 128 79 27 106 48 106 79 0 32 -39 49 -92 41 -44
-7 -150 -56 -180 -84 -11 -9 -18 -11 -18 -4 0 7 5 12 10 12 6 0 14 8 18 18 20
48 204 306 256 358 47 47 136 176 136 198 0 20 -11 46 -19 46 -4 0 -48 -61
-97 -137z m-99 -458 c-25 -19 -211 -125 -219 -125 -4 0 17 21 45 46 55 48 139
94 174 94 20 -1 20 -1 0 -15z"/>
<path d="M1413 3252 l-31 -57 -74 -3 c-101 -5 -379 -59 -397 -78 -3 -4 12 -4
34 0 50 8 331 35 368 36 15 0 27 -5 27 -10 0 -6 -31 -65 -69 -133 -37 -67 -87
-159 -109 -203 l-41 -82 -64 -11 c-35 -6 -85 -11 -112 -11 -65 0 -51 -11 22
-16 71 -6 123 -14 123 -19 0 -2 -16 -41 -35 -86 -41 -97 -39 -90 -21 -83 8 3
19 18 26 34 6 15 19 36 29 46 9 11 28 39 42 64 19 36 31 46 59 51 19 4 46 10
60 13 14 3 39 8 55 11 58 9 171 44 222 69 59 29 76 33 47 11 -36 -27 -2 -15
60 22 123 73 146 108 120 186 -31 94 -117 162 -236 187 l-58 11 0 42 c0 69
-12 71 -47 9z m189 -138 c58 -22 124 -81 134 -118 8 -32 -8 -52 -78 -97 -55
-35 -256 -111 -358 -134 -36 -9 -74 -18 -84 -21 -15 -5 -18 -3 -12 12 5 11 9
24 10 30 3 19 105 195 140 241 17 23 39 45 49 48 9 4 28 21 42 39 23 31 28 32
67 26 24 -4 64 -16 90 -26z"/>
<path d="M3120 3259 c0 -8 -79 -155 -106 -197 -4 -7 -179 -39 -184 -34 -3 2 1
7 8 9 6 3 12 8 12 13 0 13 -64 -8 -76 -25 -13 -17 -8 -51 8 -61 8 -5 68 11
136 37 27 11 62 12 62 2 0 -8 -111 -206 -119 -213 -3 -3 -7 -12 -9 -22 -1 -9
-16 -46 -33 -83 -17 -37 -29 -69 -27 -71 2 -2 30 41 61 95 32 54 64 104 72
111 8 7 13 16 10 20 -2 4 5 16 16 26 12 11 32 39 45 64 13 25 36 59 51 77 29
32 42 36 298 82 87 15 5 12 -118 -5 -64 -9 -120 -14 -123 -11 -4 3 14 39 39
79 41 65 45 75 33 93 -15 22 -56 33 -56 14z"/>
<path d="M2722 3112 c-40 -60 -72 -112 -72 -115 0 -5 -69 -123 -120 -207 -22
-36 -99 -190 -95 -190 3 0 24 35 47 77 23 42 49 84 58 93 16 16 47 62 120 178
18 28 37 52 42 52 5 0 13 11 18 25 13 35 83 124 98 124 17 1 15 22 -6 49 l-18
23 -72 -109z"/>
<path d="M2410 2924 c-25 -14 -58 -37 -73 -52 -37 -34 -87 -107 -87 -124 0 -7
6 -4 12 7 16 29 77 83 120 105 38 21 98 27 98 11 0 -5 -26 -33 -57 -61 -32
-29 -49 -48 -38 -42 11 5 45 35 75 66 30 30 56 53 58 51 3 -2 -5 -21 -17 -42
l-22 -38 26 28 c29 33 31 47 10 87 -19 37 -45 38 -105 4z"/>
<path d="M3132 2939 c-73 -29 -192 -158 -192 -208 0 -9 8 -1 18 18 27 54 122
122 178 129 44 5 46 4 35 -16 -15 -28 -130 -118 -179 -140 -39 -18 -45 -36
-12 -43 19 -4 75 24 115 56 l30 25 -30 -5 -30 -5 29 24 c16 13 35 22 42 19 6
-2 15 0 19 6 4 7 -1 8 -12 4 -17 -6 51 78 69 85 12 5 -2 -30 -21 -52 -14 -16
-14 -18 -1 -14 8 2 21 17 29 33 12 25 12 32 -4 62 -19 35 -39 40 -83 22z"/>
<path d="M1822 2891 c-67 -44 -185 -148 -190 -168 -2 -7 2 -13 9 -13 7 0 23
-10 36 -22 l23 -21 80 38 c44 22 78 40 77 42 -2 1 -38 -12 -80 -29 -42 -18
-79 -29 -83 -26 -17 18 14 48 89 87 46 23 98 55 116 72 30 27 32 31 19 51 -8
12 -19 23 -24 25 -6 2 -38 -14 -72 -36z m18 -31 c-14 -11 -32 -20 -40 -20 -8
0 -1 9 15 20 39 26 58 26 25 0z"/>
<path d="M2784 2909 c-50 -27 -105 -70 -173 -136 -48 -46 -52 -53 -35 -60 10
-4 26 -16 35 -27 17 -21 17 -21 78 8 33 16 59 31 58 32 -2 2 -29 -6 -60 -18
-32 -11 -60 -18 -64 -15 -14 15 30 57 89 85 76 36 148 87 148 106 0 7 -8 20
-18 29 -17 15 -21 15 -58 -4z m-9 -49 c-16 -11 -34 -20 -40 -20 -16 1 38 40
55 40 8 0 2 -9 -15 -20z"/>
<path d="M2445 2799 c-11 -17 1 -21 15 -4 8 9 8 15 2 15 -6 0 -14 -5 -17 -11z"/>
<path d="M2320 2733 c-19 -12 -40 -23 -47 -23 -19 0 -16 -17 4 -29 19 -10 96
23 125 55 16 18 15 19 -16 20 -19 0 -47 -9 -66 -23z"/>
<path d="M2322 2129 c-40 -38 -62 -80 -71 -136 l-6 -43 -105 85 c-58 46 -108
85 -112 85 -3 0 -19 -26 -35 -57 -38 -78 -38 -165 -1 -238 28 -54 105 -133
157 -160 l33 -16 -44 -28 c-25 -16 -59 -44 -77 -62 -36 -37 -81 -122 -81 -154
0 -14 -18 -29 -63 -52 -83 -44 -147 -100 -196 -174 -48 -72 -91 -200 -91 -270
0 -27 -2 -49 -4 -49 -2 0 -17 7 -32 15 -117 61 -184 -50 -138 -229 20 -78 46
-119 92 -148 31 -19 52 -23 127 -24 50 -1 103 -7 118 -13 19 -8 192 -11 549
-11 l521 0 -6 65 c-7 72 -22 108 -64 147 -33 31 -72 48 -113 48 -71 0 -133
210 -99 335 6 22 27 76 46 119 34 75 35 84 30 157 l-5 77 52 7 c72 10 122 32
152 68 23 27 26 37 21 79 -11 91 -103 222 -195 275 -25 15 -72 34 -106 43
l-61 17 -71 134 c-40 73 -76 135 -81 136 -4 2 -23 -11 -41 -28z m87 -181 l42
-77 -31 -16 c-30 -15 -33 -15 -52 2 -11 10 -26 30 -34 45 -17 32 -18 111 -3
140 10 19 11 19 23 1 7 -10 32 -53 55 -95z m-186 -64 l168 -136 22 20 c55 49
123 56 202 18 91 -42 195 -172 195 -244 0 -30 -5 -35 -45 -53 -51 -23 -181
-28 -230 -9 -29 11 -44 2 -45 -27 0 -7 -1 -16 -1 -20 -1 -5 16 -13 37 -19 74
-20 89 -119 36 -239 -36 -84 -51 -138 -54 -194 -1 -45 -13 -54 -24 -19 -3 12
-29 45 -56 74 -57 60 -142 103 -223 111 l-55 6 0 -31 c0 -28 3 -31 43 -37 56
-9 145 -50 180 -83 70 -66 94 -168 61 -252 -16 -40 -16 -40 -70 -40 l-54 0 0
-34 0 -34 196 -1 c151 -2 204 -5 225 -17 31 -16 59 -60 59 -94 l0 -21 -490 3
-490 3 -26 26 c-33 33 -83 196 -91 294 -10 132 42 275 137 374 49 51 139 103
200 116 66 13 70 15 70 46 0 24 -4 29 -25 29 -30 0 -31 9 -6 59 45 87 174 161
297 169 l74 5 0 31 0 31 -102 0 c-87 0 -109 4 -145 23 -120 63 -184 178 -157
280 4 12 9 22 13 22 3 0 82 -61 174 -136z m-632 -1086 c32 -25 45 -45 56 -83
25 -85 -11 -156 -72 -141 -54 14 -93 192 -52 244 14 18 21 16 68 -20z"/>
<path d="M2598 1733 c-22 -5 -35 -50 -21 -72 15 -24 47 -25 67 -2 30 34 -1 84
-46 74z"/>
</g>
</svg>
